<svg xmlns="http://www.w3.org/2000/svg" viewBox="0 0 430.15 377.97"><path d="M239.57,125.44c.67.17,1.34.32,2,.51l2,.6,4,1.22c1.33.43,2.64.94,4,1.41s2.66.94,4,1.5a122.38,122.38,0,0,1,15.75,7.73,117,117,0,0,1,14.82,10.52,112.73,112.73,0,0,1,32.28,45.36,114.5,114.5,0,0,1,2.7,75,122.65,122.65,0,0,1-7,17.59A97.11,97.11,0,0,1,275,328.26a100.7,100.7,0,0,1-34.83,12,94.2,94.2,0,0,1-22,.79,96.55,96.55,0,0,1-21.88-4.41c-1.8-.54-3.53-1.25-5.3-1.89s-3.46-1.45-5.19-2.2a86.27,86.27,0,0,1-10.42-5.77,81.5,81.5,0,0,1-18-16,82.86,82.86,0,0,1-18.79-44.28,88.67,88.67,0,0,1-.41-12.31A90.63,90.63,0,0,1,139.63,242a89.09,89.09,0,0,1,3.25-11.93c.73-1.92,1.42-3.87,2.29-5.74.43-.94.81-1.86,1.29-2.82l1.55-2.9A71.45,71.45,0,0,1,238.94,187l3,1.3c1,.51,2.08,1.09,3.1,1.65s2.07,1.11,3.05,1.75l2.93,2a55.55,55.55,0,0,1,5.52,4.41,31,31,0,0,1,2.55,2.44l2.44,2.56a62.39,62.39,0,0,1,13.26,24.46,58.69,58.69,0,0,1,1.51,6.81c.24,1.14.32,2.3.45,3.46l.3,3.47c0,2.33.08,4.66-.08,7l-.34,3.47-.2,1.73-.32,1.71A54.79,54.79,0,0,1,274.5,262l-1.05,3.3c-.39,1.08-.86,2.13-1.29,3.19s-.89,2.1-1.4,3.16-1.18,2.2-1.79,3.29a30,30,0,0,1-2,3.17c-.71,1-1.4,2.07-2.18,3.05-.65-.54.3-3.9.3-5.74,0-.93-.19-1.5-.86-1.24s-1.76,1.36-3.74,3.62a44.3,44.3,0,0,1-12.2,9.78,41.47,41.47,0,0,1-10.75,4.09,29.85,29.85,0,0,1-13.39.13c-5.46-1.63-5.1-3.66-5-5.42,0-.24.47-.33,1.23-.44s1.82-.19,3.06-.25,2.64-.3,4.1-.46l2.19-.43a18.38,18.38,0,0,0,2.16-.5,29.45,29.45,0,0,0,6.35-2.44c1.11-.72,1-.85-1.24-.31a37.51,37.51,0,0,0,9.16-5.8,38.29,38.29,0,0,0,7.33-8.81l1.33-2.51.32-.62.26-.63.51-1.26c.33-.83.67-1.65,1-2.47l.71-2.48a35,35,0,0,0,1-4.76c.06-.39.13-.76.19-1.13s.06-.75.09-1.11c0-.73.09-1.43.13-2.11.19-5.46-.75-9.17-1.15-9.9-.26-.37-.31,0-.41,1.22,0,.62-.07,1.46-.08,2.52a14.47,14.47,0,0,1-.09,1.79c-.06.65-.12,1.36-.18,2.14-.06.26-.11.54-.17.84l-.23,1c-.16.68-.31,1.45-.46,2.28a26.88,26.88,0,0,1-.63,2.68,29.66,29.66,0,0,1-.82,3c-.35,1-.71,2.09-1.09,3.19l-1.44,3.27c-.51,1.11-1.19,2.17-1.8,3.28s-1.43,2.1-2.2,3.11A30.45,30.45,0,0,1,236.93,277c-.49.21-1,.45-1.44.61l-1.42.44-1.34.39-1.28.22a14.78,14.78,0,0,1-2.24.24,12.91,12.91,0,0,1-1.79-.13,3.81,3.81,0,0,1-2-.75,1,1,0,0,1-.36-1c.15-.72,1-1.41,1.67-2.28a4.78,4.78,0,0,0,1.38-2.35c0-.7-.54-1.28-2.07-1.68a25.11,25.11,0,0,1-5.17.33l-1.5-.16-.77-.07-.76-.17c-.51-.11-1-.19-1.56-.32l-1.53-.48a9.78,9.78,0,0,1-1.51-.57c-.48-.22-1-.41-1.45-.63s-.83-.47-1.25-.69-.76-.53-1.13-.77A16,16,0,0,1,206,263.9a3.18,3.18,0,0,1-.2-.83,1.61,1.61,0,0,1,.08-.62.93.93,0,0,1,.63-.62,6.74,6.74,0,0,1,2.17,0c.39,0,.74.05,1,.05a2,2,0,0,0,.76-.16c.37-.19.3-.44-.2-1.15a12.94,12.94,0,0,1-1.52-7.94,10.42,10.42,0,0,1,.48-2,5.59,5.59,0,0,1,.39-1,5.4,5.4,0,0,1,.43-.87,5.76,5.76,0,0,1,.82-1.12,6.63,6.63,0,0,1,1.1-.86,4.93,4.93,0,0,1,1.33-.58c.23-.12.48-.09.72-.19s.48-.08.73,0a4.47,4.47,0,0,1,1.45.17c.11,0,.24.06.36.09a2.75,2.75,0,0,0,.36.15c.05,0,.15,0,.17.06l.06,0s.09,0,.11.05a1.13,1.13,0,0,1,.6.73,1.39,1.39,0,0,1,0,1c-.82-.4-2.49,1-3.21.62-.36-.17-.48-.77-.13-2.23l1.78.86.12.05.08,0h0l.08,0c.06,0,.11,0,0,0s-.18,0-.13,0a.7.7,0,0,0,.18-.12l0,0a.51.51,0,0,0-.09.12,2.05,2.05,0,0,0-.13.25l-1.26,2.58h0l0,0c-.11,0-.16,0-.23,0s-.35.09-.45.23-.1.07-.1.15,0,0,0,0,0,0,0,0,0,0,0,.07a2.06,2.06,0,0,1-.12.35,5.31,5.31,0,0,0-.29,2.78,6.07,6.07,0,0,0,1.09,2.6,1.14,1.14,0,0,1,.24.25l.09.14a.71.71,0,0,1,.14.1,1.79,1.79,0,0,1,.23.25l.28.19c.13.19.39.23.55.4s.23.08.32.15a.51.51,0,0,1,.16.09.5.5,0,0,0,.21.1,11.5,11.5,0,0,0,4.59,1,11.75,11.75,0,0,0,8.45-3.49,5.57,5.57,0,0,0,.75-.86,5.72,5.72,0,0,0,.67-.94,6,6,0,0,0,.58-1,8.05,8.05,0,0,0,.57-1.31,17.59,17.59,0,0,0,1.39-6.06,20.39,20.39,0,0,0-.64-6.16,18.29,18.29,0,0,0-2.6-5.63,18,18,0,0,0-4.16-4.45,23.68,23.68,0,0,0-5.86-3.08,3.55,3.55,0,0,0-.88-.31l-.9-.25-.89-.28-.45-.14-.46-.08a26.63,26.63,0,0,0-3.67-.55,27.82,27.82,0,0,0-7.4.28c-.61.14-1.22.27-1.83.38a3.52,3.52,0,0,0-.9.24l-.89.28a31.13,31.13,0,0,0-3.49,1.3,28.9,28.9,0,0,0-6.23,4l-.72.56a8,8,0,0,0-.65.65c-.43.44-.87.86-1.32,1.28s-.76,1-1.16,1.42l-.6.69a5.67,5.67,0,0,0-.52.76c-.33.52-.67,1-1,1.52s-.57,1.1-.88,1.64a26.43,26.43,0,0,0-1.72,3.68A40,40,0,0,0,203,293.75c1.18.64,2.66,1.27,4.08,1.9l2.17.83c.72.29,1.46.49,2.19.74a57.09,57.09,0,0,0,9,2.07,55.54,55.54,0,0,0,9.2.5,56.43,56.43,0,0,0,9.17-1,58,58,0,0,0,8.87-2.56,55.19,55.19,0,0,0,8.33-4,56.93,56.93,0,0,0,7.5-5.29,54.28,54.28,0,0,0,11.86-13.85l1.15-2,1.05-2.06c.36-.65.68-1.49,1-2.22s.72-1.51,1-2.29c.59-1.55,1.25-3.07,1.72-4.66.25-.79.56-1.56.77-2.36l.66-2.38a74.42,74.42,0,0,0-20.63-72.55,74.72,74.72,0,0,0-7.58-6.28c-1.3-1-2.72-1.85-4.08-2.77-.68-.45-1.42-.83-2.12-1.26s-1.41-.86-2.15-1.22L244,170c-.71-.4-1.57-.73-2.35-1.1l-2.39-1.1c-.8-.37-1.62-.65-2.43-1l-2.44-1-2.47-.85-2.48-.85-2.52-.71a97.57,97.57,0,0,0-41.42-2.62A99.21,99.21,0,0,0,117,204.61c-3.6,5.28-5.46,8.41-6.65,9.52-.63.71-1,.84-1.16.47a2.21,2.21,0,0,1-.09-.91,11.41,11.41,0,0,1,.14-1.36c.18-1.07.5-2.47,1-4.14s1.18-3.51,2-5.54a88.08,88.08,0,0,1,6.78-13,16.32,16.32,0,0,1-2.47,3.23,23.12,23.12,0,0,1-2.1,1.9,18.18,18.18,0,0,0-2.12,1.93,17.34,17.34,0,0,0-2.16,3.51c-1.11-.71-.93-4.7,2.23-11.41.41-.82.86-1.69,1.35-2.6l.78-1.41.9-1.42q.93-1.45,2-3c.74-1,1.57-2.06,2.43-3.16a79,79,0,0,1,14-13.48A114.67,114.67,0,0,0,117,178.27c-2.86,2.41-3.34,2-3.31.76,0-.62.18-1.44.26-2.19s.1-1.38-.23-1.7c1.37-1.36,2.69-2.78,4-4s2.56-2.4,3.59-3.42c2.14-2,3.49-3.37,3.21-3.72l-2.29-2.83c-1.52,1.3-3.51,2.84-5.51,4.74-1,1-2.1,1.89-3.14,2.93L110.4,172a123.82,123.82,0,0,0-10.27,12.31c4.71-6.49,10.24-12.33,9.61-12.94l-2.63-2.5c5.4-6.37,13.5-13.1,22.31-18.63s18.28-9.82,25.9-13.15l-.95-2.55a104.19,104.19,0,0,0-26.64,13.14A140,140,0,0,0,105.14,167c1.33-1.68,2.3-3,3-4a11.34,11.34,0,0,0,1.32-2.31,2,2,0,0,0-.67-2.32c2.29-2.34,4.81-4.44,7.32-6.55s5.19-4,8-5.77,5.56-3.48,8.38-5.12,5.77-3.09,8.76-4.42,6-2.62,9-3.9,6.08-2.36,9.19-3.36,6.21-2,9.32-3,6.29-1.89,9.5-2.71a137.29,137.29,0,0,0-25.39,6.8c.93-.64,2-1.31,3.12-2s2.43-1.22,3.79-1.83l2.11-.91,2.26-.81c1.56-.53,3.18-1.12,4.89-1.57a103.59,103.59,0,0,1,23.26-3.6,135,135,0,0,1,25.16,1.25A184.45,184.45,0,0,1,239.57,125.44Z" fill="#81cfd4"/><circle cx="212.05" cy="229.47" r="139.5" fill="none" stroke="#71c9ce" stroke-miterlimit="10" stroke-width="18"/><text transform="translate(70.03 174.36) rotate(-57.55)" font-size="99.66" fill="#71c9ce" stroke="#cbf1f5" stroke-miterlimit="10" font-family="MonotypeCorsiva, Monotype Corsiva">A</text><text transform="translate(111.32 117.7) rotate(-36.69)" font-size="99.66" fill="#71c9ce" stroke="#cbf1f5" stroke-miterlimit="10" font-family="MonotypeCorsiva, Monotype Corsiva">r</text><text transform="translate(143.95 94.91) rotate(-20.94)" font-size="99.66" fill="#71c9ce" stroke="#cbf1f5" stroke-miterlimit="10" font-family="MonotypeCorsiva, Monotype Corsiva">t</text><text transform="matrix(0.99, -0.11, 0.11, 0.99, 183.77, 81.63)" font-size="99.66" fill="#71c9ce" stroke="#cbf1f5" stroke-miterlimit="10" font-family="MonotypeCorsiva, Monotype Corsiva">i</text><text transform="matrix(0.99, 0.15, -0.15, 0.99, 217.8, 78.74)" font-size="99.66" fill="#71c9ce" stroke="#cbf1f5" stroke-miterlimit="10" font-family="MonotypeCorsiva, Monotype Corsiva">s</text><text transform="translate(258.57 85.29) rotate(26.63)" font-size="99.66" fill="#71c9ce" stroke="#cbf1f5" stroke-miterlimit="10" font-family="MonotypeCorsiva, Monotype Corsiva">p</text><text transform="translate(304.9 110.65) rotate(46.14)" font-size="99.66" fill="#71c9ce" stroke="#cbf1f5" stroke-miterlimit="10" font-family="MonotypeCorsiva, Monotype Corsiva">y</text><text transform="translate(337.51 147.69) rotate(63.23)" font-size="99.66" fill="#71c9ce" stroke="#cbf1f5" stroke-miterlimit="10" font-family="MonotypeCorsiva, Monotype Corsiva">r</text></svg>