<svg xmlns="http://www.w3.org/2000/svg" viewBox="0 0 297 297"><path d="M176,44.46c.67.17,1.34.33,2,.52l2,.59,4,1.23c1.33.43,2.64.94,4,1.41s2.66.94,4,1.5a122.38,122.38,0,0,1,15.75,7.73A117,117,0,0,1,222.52,68a112.5,112.5,0,0,1,32.28,45.36,114.5,114.5,0,0,1,2.7,75,123.11,123.11,0,0,1-7,17.59,96.84,96.84,0,0,1-10.32,16.49,97.86,97.86,0,0,1-28.79,24.94,100.7,100.7,0,0,1-34.83,12,94.2,94.2,0,0,1-22,.79,96.55,96.55,0,0,1-21.88-4.41c-1.8-.54-3.53-1.25-5.3-1.89s-3.46-1.45-5.19-2.2a86.27,86.27,0,0,1-10.42-5.77,81.5,81.5,0,0,1-18-16A82.86,82.86,0,0,1,75.05,185.6a88.67,88.67,0,0,1-.41-12.31A90.63,90.63,0,0,1,76.08,161a89.09,89.09,0,0,1,3.25-11.93c.73-1.93,1.42-3.87,2.29-5.74.43-.94.8-1.86,1.29-2.82l1.55-2.9a71.38,71.38,0,0,1,65.37-37.31,72,72,0,0,1,25.56,5.74l3,1.3c1,.51,2.07,1.09,3.1,1.65s2.07,1.11,3,1.75l2.93,2a55.55,55.55,0,0,1,5.52,4.41,31,31,0,0,1,2.55,2.44l2.44,2.56a62.39,62.39,0,0,1,13.26,24.46,58.69,58.69,0,0,1,1.51,6.81c.24,1.14.32,2.3.45,3.46l.3,3.47c0,2.33.08,4.66-.08,7l-.34,3.47-.2,1.73-.32,1.71A54.79,54.79,0,0,1,211,181l-1,3.3c-.39,1.08-.86,2.13-1.29,3.19s-.89,2.09-1.4,3.16-1.18,2.2-1.79,3.29a31.06,31.06,0,0,1-2,3.17c-.72,1-1.4,2.07-2.18,3-.65-.53.3-3.89.3-5.73,0-.93-.19-1.5-.86-1.24s-1.76,1.36-3.74,3.62a44.3,44.3,0,0,1-12.2,9.78A41,41,0,0,1,174,210.65a29.74,29.74,0,0,1-13.39.14c-5.46-1.63-5.1-3.66-5-5.42,0-.24.47-.33,1.23-.44s1.82-.19,3.06-.25,2.64-.3,4.1-.46l2.19-.43a18.38,18.38,0,0,0,2.16-.5,29.45,29.45,0,0,0,6.35-2.44c1.11-.72,1-.85-1.24-.31a37.7,37.7,0,0,0,9.16-5.8,38.29,38.29,0,0,0,7.33-8.81l1.33-2.51.32-.62.26-.63.51-1.26c.33-.83.67-1.65,1-2.47L194,176a35.1,35.1,0,0,0,1-4.77c.06-.38.13-.75.19-1.12s.06-.75.09-1.11c0-.73.09-1.44.13-2.12.19-5.45-.75-9.16-1.15-9.89-.26-.37-.31,0-.41,1.22,0,.62-.07,1.45-.08,2.52a12.65,12.65,0,0,1-.1,1.78c-.05.66-.11,1.37-.17,2.15-.06.26-.11.54-.17.84s-.15.62-.23,1c-.16.68-.31,1.45-.46,2.28s-.4,1.73-.63,2.68a29.66,29.66,0,0,1-.82,3c-.35,1-.71,2.09-1.09,3.19l-1.44,3.27c-.51,1.11-1.2,2.17-1.8,3.28s-1.43,2.1-2.2,3.11A30.45,30.45,0,0,1,173.38,196c-.49.21-1,.45-1.44.61l-1.42.44-1.34.39-1.28.22a14.78,14.78,0,0,1-2.24.24,12.91,12.91,0,0,1-1.79-.13,3.81,3.81,0,0,1-2-.75,1,1,0,0,1-.36-1c.15-.72,1-1.41,1.67-2.28a4.78,4.78,0,0,0,1.38-2.35c0-.7-.54-1.28-2.07-1.68a25.83,25.83,0,0,1-5.17.33l-1.5-.16-.77-.07-.76-.17c-.51-.11-1-.2-1.56-.32l-1.53-.48a9.78,9.78,0,0,1-1.51-.57c-.48-.22-1-.41-1.45-.63s-.83-.47-1.25-.69-.76-.53-1.13-.77a16,16,0,0,1-3.38-3.25,3.67,3.67,0,0,1-.21-.84,1.75,1.75,0,0,1,.09-.61.93.93,0,0,1,.63-.62,6.74,6.74,0,0,1,2.17,0c.39,0,.74,0,1.05,0a2.22,2.22,0,0,0,.76-.16c.37-.19.3-.44-.2-1.16a12.89,12.89,0,0,1-1.52-7.93,10.42,10.42,0,0,1,.48-2,5.59,5.59,0,0,1,.39-1,5.4,5.4,0,0,1,.43-.87,6.16,6.16,0,0,1,.82-1.13,7.15,7.15,0,0,1,1.1-.85,5.29,5.29,0,0,1,1.33-.59c.23-.11.48-.08.72-.18s.48-.08.73,0a4.5,4.5,0,0,1,1.45.17c.11,0,.24.06.36.09l.36.15a1.07,1.07,0,0,1,.17.06l.06,0s.09,0,.11.05a1.13,1.13,0,0,1,.6.73,1.39,1.39,0,0,1,0,1c-.82-.4-2.49,1-3.21.62-.36-.17-.48-.77-.13-2.23l1.78.86.12.05.08,0h0l.08,0c.06,0,.11,0,0,0s-.18,0-.13,0a.7.7,0,0,0,.18-.12l0,0a.51.51,0,0,0-.09.12,2.05,2.05,0,0,0-.13.25l-1.26,2.58h0l0,0c-.11,0-.16,0-.23,0s-.35.08-.45.22-.1.08-.1.16,0,0,0,0-.05,0,0,0,0,0,0,.06a1.9,1.9,0,0,1-.12.36,5.31,5.31,0,0,0-.29,2.78,6,6,0,0,0,1.09,2.59,1.48,1.48,0,0,1,.24.26l.09.14a.71.71,0,0,1,.14.1,1.37,1.37,0,0,1,.23.25l.28.19c.13.19.39.23.55.4s.23.08.32.15a.51.51,0,0,1,.16.09.5.5,0,0,0,.21.1,11.46,11.46,0,0,0,4.59,1,11.75,11.75,0,0,0,8.45-3.49,5.57,5.57,0,0,0,.75-.86,5.72,5.72,0,0,0,.67-.94,6,6,0,0,0,.58-1,7.83,7.83,0,0,0,.57-1.32,17.48,17.48,0,0,0,1.39-6.05,20.39,20.39,0,0,0-.64-6.16,18.29,18.29,0,0,0-2.6-5.63,18,18,0,0,0-4.16-4.45,24,24,0,0,0-5.86-3.09,4,4,0,0,0-.88-.3l-.9-.25-.89-.28-.45-.15-.46-.07a26.63,26.63,0,0,0-3.67-.55,27.82,27.82,0,0,0-7.4.28c-.61.14-1.22.27-1.83.38a3.52,3.52,0,0,0-.9.24L139,145a31.13,31.13,0,0,0-3.49,1.3,28.52,28.52,0,0,0-6.23,4l-.72.56c-.25.19-.43.44-.66.65-.42.44-.86.86-1.31,1.28s-.76,1-1.16,1.42l-.6.69a5.67,5.67,0,0,0-.52.76c-.33.52-.68,1-1,1.52s-.57,1.1-.88,1.64a26.43,26.43,0,0,0-1.72,3.68,40,40,0,0,0,18.75,50.34c1.18.64,2.66,1.27,4.08,1.9l2.17.83c.72.29,1.46.49,2.19.74a57.09,57.09,0,0,0,9,2.07,55.92,55.92,0,0,0,18.37-.52,56.88,56.88,0,0,0,8.87-2.55,55.19,55.19,0,0,0,8.33-3.95A56.93,56.93,0,0,0,200,206a54.28,54.28,0,0,0,11.86-13.85l1.15-2,1.05-2.06c.36-.65.68-1.49,1-2.22s.72-1.51,1-2.29c.59-1.55,1.25-3.07,1.72-4.66.25-.79.56-1.56.77-2.36l.66-2.38a74.42,74.42,0,0,0-20.63-72.55A75.83,75.83,0,0,0,191,95.37c-1.3-1-2.72-1.85-4.08-2.77-.68-.45-1.42-.83-2.12-1.26s-1.41-.86-2.15-1.22L180.43,89c-.71-.4-1.57-.73-2.35-1.11l-2.39-1.09c-.8-.37-1.62-.66-2.43-1l-2.44-1L168.35,84l-2.48-.85-2.52-.71a97.57,97.57,0,0,0-41.42-2.62,99.21,99.21,0,0,0-68.45,43.85c-3.6,5.28-5.46,8.41-6.65,9.52-.63.71-1,.84-1.16.47a2.07,2.07,0,0,1-.09-.91,11.21,11.21,0,0,1,.14-1.36c.18-1.07.5-2.47,1-4.14s1.18-3.51,2-5.54a88.08,88.08,0,0,1,6.78-13A16.63,16.63,0,0,1,53,111.91a23.12,23.12,0,0,1-2.1,1.9,18.18,18.18,0,0,0-2.12,1.93,17.34,17.34,0,0,0-2.16,3.51c-1.11-.71-.93-4.7,2.23-11.41.41-.82.86-1.69,1.35-2.6l.78-1.41.9-1.42q.93-1.45,2-3c.73-1,1.57-2.06,2.43-3.16a79,79,0,0,1,14-13.48A114.67,114.67,0,0,0,53.42,97.3c-2.86,2.41-3.34,2-3.31.76,0-.62.18-1.44.26-2.19s.1-1.38-.23-1.7c1.37-1.37,2.69-2.78,4-4s2.56-2.4,3.59-3.43c2.14-1.95,3.49-3.36,3.21-3.72l-2.29-2.82c-1.52,1.3-3.51,2.83-5.51,4.74-1,1-2.1,1.89-3.14,2.93L46.85,91a122.69,122.69,0,0,0-10.27,12.31c4.71-6.5,10.24-12.33,9.61-12.94L43.56,87.9c5.4-6.36,13.5-13.1,22.31-18.62s18.28-9.82,25.9-13.15l-1-2.55A104.19,104.19,0,0,0,64.18,66.72,140,140,0,0,0,41.59,86c1.33-1.68,2.3-3,3-4a11.34,11.34,0,0,0,1.32-2.31,2,2,0,0,0-.67-2.32C47.5,75.06,50,73,52.53,70.85s5.19-4,8-5.77S66.05,61.6,68.87,60s5.77-3.09,8.76-4.42,6-2.63,9-3.9,6.08-2.36,9.19-3.36,6.21-2,9.32-3.05c3.16-.88,6.29-1.89,9.5-2.71a136.51,136.51,0,0,0-25.39,6.8c.93-.64,2-1.31,3.12-2s2.43-1.22,3.79-1.83l2.11-.91,2.26-.81c1.56-.53,3.18-1.12,4.89-1.57a103,103,0,0,1,23.26-3.6,135.07,135.07,0,0,1,25.16,1.25A186.52,186.52,0,0,1,176,44.46Z" fill="#81cfd4"/><circle cx="148.5" cy="148.5" r="139.5" fill="none" stroke="#71c9ce" stroke-miterlimit="10" stroke-width="18"/></svg>